<svg width="20" height="20" viewBox="0 0 20 20" fill="none" xmlns="http://www.w3.org/2000/svg">
<path d="M9.99935 18.334C14.6017 18.334 18.3327 14.603 18.3327 10.0006C18.3327 5.39826 14.6017 1.6673 9.99935 1.6673C5.39698 1.6673 1.66602 5.39826 1.66602 10.0006C1.66602 14.603 5.39698 18.334 9.99935 18.334Z" stroke="#36414F" stroke-width="1.5" stroke-linecap="round" stroke-linejoin="round"/>
<path d="M17.5 12.5006H2.5M17.5 7.50063H2.5M6.66667 10.0006C6.66667 15.0006 10 18.334 10 18.334C10 18.334 13.3333 15.0006 13.3333 10.0006C13.3333 5.00063 10 1.6673 10 1.6673C10 1.6673 6.66667 5.00063 6.66667 10.0006Z" stroke="#36414F" stroke-width="1.5" stroke-linecap="round" stroke-linejoin="round"/>
</svg>
