<svg width="32" height="32" viewBox="0 0 32 32" fill="none" xmlns="http://www.w3.org/2000/svg">
<path d="M16.0016 1C9.45156 1 3.90156 5.15 1.85156 11H30.1516C28.1016 5.15 22.5516 1 16.0016 1Z" fill="#DC2626"/>
<path d="M16.0016 31C22.5516 31 28.1016 26.85 30.1516 21H1.85156C3.90156 26.85 9.45156 31 16.0016 31Z" fill="#0F6EB4"/>
<path d="M1.85 11C1.3 12.55 1 14.25 1 16C1 17.75 1.3 19.45 1.85 21H30.15C30.7 19.45 31 17.75 31 16C31 14.25 30.7 12.55 30.15 11H1.85Z" fill="white" fill-opacity="0.8"/>
</svg>
