<svg width="65" height="64" viewBox="0 0 65 64" fill="none" xmlns="http://www.w3.org/2000/svg">
<rect x="0.333984" width="64" height="64" rx="16" fill="white"/>
<path d="M35.001 39.9993C35.001 41.866 35.001 42.7993 35.365 43.5127C35.6845 44.1395 36.1941 44.6492 36.821 44.9687C37.5343 45.3327 38.4676 45.3327 40.3343 45.3327C42.201 45.3327 43.1343 45.3327 43.8476 44.9687C44.4745 44.6492 44.9841 44.1395 45.3036 43.5127C45.6676 42.7993 45.6676 41.866 45.6676 39.9993C45.6676 38.1327 45.6676 37.1993 45.3036 36.486C44.9841 35.8592 44.4745 35.3495 43.8476 35.03C43.1343 34.666 42.201 34.666 40.3343 34.666M35.001 39.9993C35.001 38.1327 35.001 37.1993 35.365 36.486C35.6845 35.8592 36.1941 35.3495 36.821 35.03C37.5343 34.666 38.4676 34.666 40.3343 34.666M35.001 39.9993C35.001 41.866 35.001 42.7993 34.637 43.5127C34.3175 44.1395 33.8078 44.6492 33.181 44.9687C32.4676 45.3327 31.5343 45.3327 29.6676 45.3327C27.801 45.3327 26.8676 45.3327 26.1543 44.9687C25.527 44.6494 25.0168 44.1397 24.697 43.5127C24.3343 42.7993 24.3343 41.866 24.3343 39.9993C24.3343 38.1327 24.3343 37.1993 24.697 36.486C25.0168 35.859 25.527 35.3493 26.1543 35.03C26.8676 34.666 27.801 34.666 29.6676 34.666C31.5343 34.666 32.4676 34.666 33.181 35.03C33.8078 35.3495 34.3175 35.8592 34.637 36.486C35.001 37.1993 35.001 38.1327 35.001 39.9993ZM40.3343 34.666C42.201 34.666 43.1343 34.666 43.8476 34.302C44.4745 33.9825 44.9841 33.4728 45.3036 32.846C45.6676 32.1327 45.6676 31.1993 45.6676 29.3327C45.6676 27.466 45.6676 26.5327 45.3036 25.8193C44.9844 25.192 44.4747 24.6819 43.8476 24.362C43.1343 23.9993 42.201 23.9993 40.3343 23.9993C38.4676 23.9993 37.5343 23.9993 36.821 24.362C36.1939 24.6819 35.6843 25.192 35.365 25.8193C35.001 26.5327 35.001 27.466 35.001 29.3327C35.001 31.1993 35.001 32.1327 35.365 32.846C35.6845 33.4728 36.1941 33.9825 36.821 34.302C37.5343 34.666 38.4676 34.666 40.3343 34.666ZM29.6676 23.9993C29.6676 25.866 29.6676 26.7993 29.305 27.5127C28.9853 28.1402 28.4752 28.6504 27.8476 28.97C27.1343 29.3327 26.201 29.3327 24.3343 29.3327C22.4676 29.3327 21.5343 29.3327 20.821 28.97C20.1934 28.6504 19.6833 28.1402 19.3636 27.5127C19.001 26.7993 19.001 25.866 19.001 23.9993C19.001 22.1327 19.001 21.1993 19.3636 20.486C19.6833 19.8585 20.1934 19.3483 20.821 19.0287C21.5343 18.666 22.4676 18.666 24.3343 18.666C26.201 18.666 27.1343 18.666 27.8476 19.0287C28.4752 19.3483 28.9853 19.8585 29.305 20.486C29.6676 21.1993 29.6676 22.1327 29.6676 23.9993Z" stroke="#DC2626" stroke-width="2" stroke-linecap="round" stroke-linejoin="round"/>
</svg>
