<svg width="64" height="64" viewBox="0 0 64 64" fill="none" xmlns="http://www.w3.org/2000/svg">
<rect width="64" height="64" rx="16" fill="white"/>
<path d="M31.9997 45.3327C33.3989 45.3327 34.7626 44.8924 35.8977 44.0743C37.0328 43.2562 37.8818 42.1016 38.3242 40.7742C38.7667 39.4468 38.7803 38.0138 38.3631 36.6782C37.9459 35.3427 37.119 34.1722 35.9997 33.3327V22.666C35.9997 21.4233 35.9997 20.802 35.797 20.3113C35.5264 19.6582 35.0075 19.1393 34.3543 18.8687C33.8663 18.666 33.2423 18.666 31.9997 18.666C30.757 18.666 30.1343 18.666 29.645 18.8687C28.9919 19.1393 28.473 19.6582 28.2023 20.3113C27.9997 20.802 27.9997 21.4233 27.9997 22.666V33.3327C26.8803 34.1722 26.0535 35.3427 25.6363 36.6782C25.219 38.0138 25.2326 39.4468 25.6751 40.7742C26.1176 42.1016 26.9665 43.2562 28.1016 44.0743C29.2367 44.8924 30.6005 45.3327 31.9997 45.3327Z" stroke="#DC2626" stroke-width="2" stroke-linecap="round" stroke-linejoin="round"/>
<path d="M31.9997 35.9993C31.2924 35.9993 30.6142 36.2803 30.1141 36.7804C29.614 37.2805 29.333 37.9588 29.333 38.666C29.333 39.3733 29.614 40.0515 30.1141 40.5516C30.6142 41.0517 31.2924 41.3327 31.9997 41.3327C32.7069 41.3327 33.3852 41.0517 33.8853 40.5516C34.3854 40.0515 34.6663 39.3733 34.6663 38.666C34.6663 37.9588 34.3854 37.2805 33.8853 36.7804C33.3852 36.2803 32.7069 35.9993 31.9997 35.9993ZM31.9997 35.9993V26.666" stroke="#DC2626" stroke-width="2" stroke-linecap="round" stroke-linejoin="round"/>
</svg>
