<svg width="65" height="64" viewBox="0 0 65 64" fill="none" xmlns="http://www.w3.org/2000/svg">
<rect x="0.333984" width="64" height="64" rx="16" fill="white"/>
<path d="M37.6676 29.3333L40.5343 30.1933C42.365 30.7427 43.281 31.0173 43.8076 31.7267C44.3343 32.4333 44.3343 33.3907 44.3343 35.3013V45.3333M27.001 28H31.001M27.001 33.3333H31.001M32.3343 45.3333V41.3333C32.3343 40.076 32.3343 39.448 31.9436 39.0573C31.553 38.6667 30.925 38.6667 29.6676 38.6667H28.3343C27.077 38.6667 26.449 38.6667 26.0583 39.0573C25.6676 39.448 25.6676 40.076 25.6676 41.3333V45.3333M19.001 45.3333H45.6676" stroke="#DC2626" stroke-width="2" stroke-linecap="round" stroke-linejoin="round"/>
<path d="M20.334 45.3328V24.9555C20.334 21.6088 20.334 19.9342 21.3887 19.1035C22.4433 18.2728 23.9967 18.7248 27.1047 19.6262L33.7713 21.5608C35.646 22.1048 36.5833 22.3768 37.1247 23.1195C37.6673 23.8608 37.6673 24.8702 37.6673 26.8915V45.3328" stroke="#DC2626" stroke-width="2" stroke-linecap="round" stroke-linejoin="round"/>
</svg>
