<svg width="28" height="34" viewBox="0 0 28 34" fill="none" xmlns="http://www.w3.org/2000/svg">
<path d="M20 24.5H9.5M20 18.5H15.5M26.75 20C26.75 25.6565 26.75 28.4855 24.8825 30.242C23.015 31.9985 20.0105 32 14 32H12.8405C7.9505 32 5.5025 32 3.8045 30.803C3.32127 30.4641 2.88934 30.0575 2.522 29.5955C1.25 27.9965 1.25 25.6955 1.25 21.0905V17.273C1.25 12.8285 1.25 10.6055 1.9535 8.831C3.0845 5.9765 5.4755 3.7265 8.5085 2.6615C10.3925 2 12.752 2 17.477 2C20.174 2 21.524 2 22.601 2.378C24.3335 2.987 25.7 4.2725 26.3465 5.903C26.7485 6.917 26.7485 8.1875 26.7485 10.727L26.75 20Z" stroke="#DC2626" stroke-width="2.25" stroke-linecap="round" stroke-linejoin="round"/>
</svg>
