<svg width="65" height="64" viewBox="0 0 65 64" fill="none" xmlns="http://www.w3.org/2000/svg">
<rect x="0.666992" width="64" height="64" rx="16" fill="white"/>
<path fill-rule="evenodd" clip-rule="evenodd" d="M31.0007 23.6667C31.0007 23.2246 31.1762 22.8007 31.4888 22.4882C31.8014 22.1756 32.2253 22 32.6673 22C33.1093 22 33.5333 22.1756 33.8458 22.4882C34.1584 22.8007 34.334 23.2246 34.334 23.6667C34.334 24.1087 34.1584 24.5326 33.8458 24.8452C33.5333 25.1577 33.1093 25.3333 32.6673 25.3333C32.2253 25.3333 31.8014 25.1577 31.4888 24.8452C31.1762 24.5326 31.0007 24.1087 31.0007 23.6667ZM33.6673 27.2C34.894 26.8533 35.854 25.8933 36.2006 24.6667H43.334C43.8806 24.6667 44.334 24.2133 44.334 23.6667C44.334 23.12 43.8806 22.6667 43.334 22.6667H36.2006C35.7606 21.1333 34.3473 20 32.6673 20C30.9873 20 29.574 21.1333 29.134 22.6667H22.0007C21.454 22.6667 21.0007 23.12 21.0007 23.6667C21.0007 24.2133 21.454 24.6667 22.0007 24.6667H29.134C29.4807 25.8933 30.4406 26.8533 31.6673 27.2V44H26.0007C25.454 44 25.0007 44.4533 25.0007 45C25.0007 45.5467 25.454 46 26.0007 46H39.334C39.8806 46 40.334 45.5467 40.334 45C40.334 44.4533 39.8806 44 39.334 44H33.6673V27.2ZM40.414 27.28C40.4885 27.0976 40.616 26.9417 40.78 26.8324C40.944 26.723 41.1369 26.6653 41.334 26.6667H42.6673C43.0673 26.6667 43.4407 26.9067 43.5873 27.28L46.9207 35.28C46.974 35.4 47.0006 35.5333 47.0006 35.6667C47.0006 38.4267 44.7606 40.6667 42.0007 40.6667C39.2407 40.6667 37.0007 38.4267 37.0007 35.6667C37.0007 35.5333 37.0273 35.4 37.0807 35.28L40.414 27.28ZM42.0007 28.6667L39.494 34.6667H44.5073L42.0007 28.6667ZM39.174 36.6667C39.5873 37.8267 40.694 38.6667 42.0007 38.6667C43.3073 38.6667 44.414 37.8267 44.8273 36.6667H39.174ZM22.6673 26.6667C22.2673 26.6667 21.894 26.9067 21.7473 27.28L18.414 35.28C18.3607 35.4 18.334 35.5333 18.334 35.6667C18.334 38.4267 20.574 40.6667 23.334 40.6667C26.094 40.6667 28.334 38.4267 28.334 35.6667C28.334 35.5333 28.3073 35.4 28.254 35.28L24.9207 27.28C24.8461 27.0976 24.7186 26.9417 24.5546 26.8324C24.3907 26.723 24.1977 26.6653 24.0007 26.6667H22.6673ZM20.8407 34.6667L23.334 28.6667L25.8407 34.6667H20.8407ZM23.334 38.6667C22.0273 38.6667 20.9207 37.8267 20.5073 36.6667H26.1607C25.7473 37.8267 24.6407 38.6667 23.334 38.6667Z" fill="#DC2626"/>
</svg>
