<svg width="23" height="22" viewBox="0 0 23 22" fill="none" xmlns="http://www.w3.org/2000/svg">
<path d="M0.949219 1.09922C0.949219 0.860524 1.04404 0.631606 1.21282 0.462823C1.38161 0.29404 1.61052 0.199219 1.84922 0.199219H3.80282C4.30999 0.199064 4.80009 0.382461 5.18257 0.715531C5.56505 1.0486 5.81406 1.50884 5.88362 2.01122L5.96522 2.59922C11.3533 2.61133 16.7257 3.17914 21.9972 4.29362C22.2275 4.34277 22.4294 4.48025 22.5595 4.67655C22.6897 4.87285 22.7377 5.11234 22.6932 5.34362C22.209 7.86333 21.5605 10.3486 20.7516 12.7836C20.6919 12.963 20.5772 13.1189 20.4239 13.2294C20.2705 13.3399 20.0862 13.3993 19.8972 13.3992H6.94922C6.81242 13.3992 6.67802 13.408 6.54602 13.4256C6.0354 13.4948 5.5512 13.6943 5.14009 14.0049C4.72897 14.3156 4.4048 14.7269 4.19882 15.1992H20.4492C20.6879 15.1992 20.9168 15.294 21.0856 15.4628C21.2544 15.6316 21.3492 15.8605 21.3492 16.0992C21.3492 16.3379 21.2544 16.5668 21.0856 16.7356C20.9168 16.9044 20.6879 16.9992 20.4492 16.9992H3.06122C2.93725 16.9992 2.81461 16.9737 2.70099 16.9241C2.58737 16.8745 2.48522 16.8019 2.40095 16.711C2.31667 16.6201 2.25209 16.5128 2.21125 16.3957C2.17041 16.2787 2.1542 16.1544 2.16362 16.0308C2.23583 15.0905 2.58346 14.1922 3.16309 13.4483C3.74273 12.7043 4.52868 12.1476 5.42282 11.8476L4.10042 2.25842C4.09055 2.18653 4.05496 2.12065 4.00024 2.07299C3.94552 2.02534 3.87538 1.99913 3.80282 1.99922H1.84922C1.61052 1.99922 1.38161 1.9044 1.21282 1.73562C1.04404 1.56683 0.949219 1.33791 0.949219 1.09922ZM6.94922 19.9992C6.94922 20.4766 6.75958 20.9344 6.42201 21.272C6.08445 21.6096 5.62661 21.7992 5.14922 21.7992C4.67183 21.7992 4.21399 21.6096 3.87643 21.272C3.53886 20.9344 3.34922 20.4766 3.34922 19.9992C3.34922 19.5218 3.53886 19.064 3.87643 18.7264C4.21399 18.3889 4.67183 18.1992 5.14922 18.1992C5.62661 18.1992 6.08445 18.3889 6.42201 18.7264C6.75958 19.064 6.94922 19.5218 6.94922 19.9992ZM18.3492 21.7992C18.8266 21.7992 19.2844 21.6096 19.622 21.272C19.9596 20.9344 20.1492 20.4766 20.1492 19.9992C20.1492 19.5218 19.9596 19.064 19.622 18.7264C19.2844 18.3889 18.8266 18.1992 18.3492 18.1992C17.8718 18.1992 17.414 18.3889 17.0764 18.7264C16.7389 19.064 16.5492 19.5218 16.5492 19.9992C16.5492 20.4766 16.7389 20.9344 17.0764 21.272C17.414 21.6096 17.8718 21.7992 18.3492 21.7992Z" fill="#C0BABA"/>
</svg>
