<svg width="12" height="11" viewBox="0 0 12 11" fill="none" xmlns="http://www.w3.org/2000/svg">
<path d="M2.27918 0.220823C2.137 0.0883428 1.94896 0.0162199 1.75465 0.0196481C1.56035 0.0230763 1.37497 0.101788 1.23755 0.239201C1.10014 0.376614 1.02143 0.561999 1.018 0.7563C1.01457 0.950602 1.0867 1.13865 1.21918 1.28082L4.93918 5.00082L1.21918 8.72082C1.14549 8.78948 1.08639 8.87229 1.0454 8.96428C1.0044 9.05628 0.982362 9.1556 0.980585 9.2563C0.978809 9.357 0.997333 9.45703 1.03505 9.55042C1.07278 9.64381 1.12892 9.72864 1.20014 9.79986C1.27136 9.87108 1.35619 9.92723 1.44958 9.96495C1.54297 10.0027 1.643 10.0212 1.7437 10.0194C1.8444 10.0176 1.94372 9.9956 2.03571 9.9546C2.12771 9.91361 2.21052 9.85451 2.27918 9.78082L5.99918 6.06082L9.71918 9.78082C9.78784 9.85451 9.87064 9.91361 9.96264 9.9546C10.0546 9.9956 10.154 10.0176 10.2547 10.0194C10.3554 10.0212 10.4554 10.0027 10.5488 9.96495C10.6422 9.92723 10.727 9.87108 10.7982 9.79986C10.8694 9.72864 10.9256 9.64381 10.9633 9.55042C11.001 9.45703 11.0195 9.357 11.0178 9.2563C11.016 9.1556 10.9939 9.05628 10.953 8.96428C10.912 8.87229 10.8529 8.78948 10.7792 8.72082L7.05918 5.00082L10.7792 1.28082C10.9117 1.13865 10.9838 0.950602 10.9804 0.7563C10.9769 0.561999 10.8982 0.376614 10.7608 0.239201C10.6234 0.101788 10.438 0.0230763 10.2437 0.0196481C10.0494 0.0162199 9.86135 0.0883428 9.71918 0.220823L5.99918 3.94082L2.27918 0.220823Z" fill="#212222"/>
</svg>
