<svg width="24" height="24" viewBox="0 0 24 24" fill="none" xmlns="http://www.w3.org/2000/svg">
<g clip-path="url(#clip0_871_38211)">
<path d="M12 24C18.6274 24 24 18.6274 24 12C24 5.37258 18.6274 0 12 0C5.37258 0 0 5.37258 0 12C0 18.6274 5.37258 24 12 24Z" fill="#F0F0F0"/>
<path d="M2.4813 4.69336C1.53869 5.91975 0.827922 7.33327 0.414062 8.86884H6.65678L2.4813 4.69336Z" fill="#0052B4"/>
<path d="M23.5864 8.8688C23.1725 7.33327 22.4617 5.91975 21.5191 4.69336L17.3438 8.8688H23.5864Z" fill="#0052B4"/>
<path d="M0.414062 15.1309C0.827969 16.6664 1.53873 18.0799 2.4813 19.3063L6.65664 15.1309H0.414062Z" fill="#0052B4"/>
<path d="M19.3063 2.48134C18.0799 1.53873 16.6664 0.827969 15.1309 0.414062V6.65673L19.3063 2.48134Z" fill="#0052B4"/>
<path d="M4.69336 21.5191C5.91975 22.4617 7.33327 23.1725 8.8688 23.5864V17.3438L4.69336 21.5191Z" fill="#0052B4"/>
<path d="M8.86875 0.414062C7.33322 0.827969 5.9197 1.53873 4.69336 2.4813L8.86875 6.65669V0.414062Z" fill="#0052B4"/>
<path d="M15.1309 23.5864C16.6664 23.1725 18.0799 22.4617 19.3063 21.5191L15.1309 17.3438V23.5864Z" fill="#0052B4"/>
<path d="M17.3438 15.1309L21.5191 19.3063C22.4617 18.08 23.1725 16.6664 23.5864 15.1309H17.3438Z" fill="#0052B4"/>
<path d="M23.8984 10.4348H13.5653H13.5652V0.101578C13.0529 0.034875 12.5305 0 12 0C11.4694 0 10.9471 0.034875 10.4348 0.101578V10.4347V10.4348H0.101578C0.034875 10.9471 0 11.4695 0 12C0 12.5306 0.034875 13.0529 0.101578 13.5652H10.4347H10.4348V23.8984C10.9471 23.9651 11.4694 24 12 24C12.5305 24 13.0529 23.9652 13.5652 23.8984V13.5653V13.5652H23.8984C23.9651 13.0529 24 12.5306 24 12C24 11.4695 23.9651 10.9471 23.8984 10.4348V10.4348Z" fill="#D80027"/>
<path d="M15.1309 15.1309L20.4857 20.4857C20.732 20.2395 20.9669 19.9821 21.191 19.7153L16.6066 15.1309H15.1309V15.1309Z" fill="#D80027"/>
<path d="M8.86853 15.1309H8.86844L3.51367 20.4856C3.75986 20.7319 4.01725 20.9668 4.28406 21.191L8.86853 16.6064V15.1309Z" fill="#D80027"/>
<path d="M8.86878 8.86862V8.86853L3.51397 3.51367C3.26769 3.75986 3.03275 4.01725 2.80859 4.28406L7.39311 8.86858H8.86878V8.86862Z" fill="#D80027"/>
<path d="M15.1309 8.86883L20.4857 3.51392C20.2395 3.26764 19.9821 3.0327 19.7153 2.80859L15.1309 7.39311V8.86883Z" fill="#D80027"/>
</g>
<defs>
<clipPath id="clip0_871_38211">
<rect width="24" height="24" fill="white"/>
</clipPath>
</defs>
</svg>
