<svg width="40" height="40" viewBox="0 0 40 40" fill="none" xmlns="http://www.w3.org/2000/svg">
<path d="M0 20C0 8.95431 8.95431 0 20 0C31.0457 0 40 8.95431 40 20C40 31.0457 31.0457 40 20 40C8.95431 40 0 31.0457 0 20Z" fill="#F8FAFC"/>
<path d="M18.334 13.3327V11.666H16.6673V13.3327H10.834V14.9993H20.0007V16.4638C20.0007 16.9058 19.8251 17.3298 19.5125 17.6423L17.5006 19.6542L16.3221 18.4757C16.0096 18.1631 15.834 17.7392 15.834 17.2971V16.666H14.1673V17.2971C14.1673 18.1812 14.5185 19.029 15.1436 19.6542L16.3221 20.8327L11.9114 25.2434L13.0899 26.4219L17.5007 22.0112L19.4114 23.9219L20.5899 22.7434L18.6792 20.8327L20.691 18.8208C21.3161 18.1957 21.6673 17.3479 21.6673 16.4638V14.9993H24.1673V13.3327H18.334Z" fill="#DC2626"/>
<path fill-rule="evenodd" clip-rule="evenodd" d="M22.1163 25.8327L21.7032 26.7621C21.6796 26.8153 21.6673 26.873 21.6673 26.9313V28.3327H20.0007V26.9313C20.0007 26.6398 20.0618 26.3515 20.1802 26.0852L23.2958 19.075C23.4965 18.6236 23.9441 18.3327 24.4381 18.3327H24.7299C25.2239 18.3327 25.6715 18.6236 25.8721 19.075L28.9878 26.0852C29.1061 26.3515 29.1673 26.6398 29.1673 26.9313V28.3327H27.5006V26.9313C27.5006 26.873 27.4884 26.8153 27.4647 26.7621L27.0517 25.8327H22.1163ZM22.857 24.166H26.3109L24.584 20.2804L22.857 24.166Z" fill="#DC2626"/>
</svg>
