<svg width="18" height="21" viewBox="0 0 18 21" fill="none" xmlns="http://www.w3.org/2000/svg">
<path fill-rule="evenodd" clip-rule="evenodd" d="M8.62761 20.72L8.63121 20.7212C8.86761 20.8244 8.99961 20.8004 8.99961 20.8004C8.99961 20.8004 9.13161 20.8244 9.36921 20.7212L9.37161 20.72L9.37881 20.7164L9.40041 20.7068C9.51425 20.6537 9.62669 20.5977 9.73761 20.5388C9.96081 20.4236 10.2728 20.2508 10.646 20.0192C11.39 19.5584 12.38 18.86 13.3748 17.9012C15.362 15.986 17.3996 12.992 17.3996 8.80039C17.3996 7.69729 17.1823 6.60499 16.7602 5.58585C16.3381 4.56672 15.7193 3.64071 14.9393 2.86069C14.1593 2.08068 13.2333 1.46194 12.2141 1.0398C11.195 0.617663 10.1027 0.400391 8.99961 0.400391C7.89651 0.400391 6.8042 0.617663 5.78507 1.0398C4.76593 1.46194 3.83992 2.08068 3.05991 2.86069C2.2799 3.64071 1.66116 4.56672 1.23902 5.58585C0.816882 6.60499 0.599609 7.69729 0.599609 8.80039C0.599609 12.9908 2.63721 15.986 4.62561 17.9012C5.45793 18.701 6.37217 19.4109 7.35321 20.0192C7.73326 20.2549 8.12408 20.4727 8.52441 20.672L8.59881 20.7068L8.62041 20.7164L8.62761 20.72ZM8.99961 11.5004C9.71569 11.5004 10.4024 11.2159 10.9088 10.7096C11.4151 10.2032 11.6996 9.51648 11.6996 8.80039C11.6996 8.08431 11.4151 7.39755 10.9088 6.8912C10.4024 6.38485 9.71569 6.10039 8.99961 6.10039C8.28352 6.10039 7.59677 6.38485 7.09042 6.8912C6.58407 7.39755 6.29961 8.08431 6.29961 8.80039C6.29961 9.51648 6.58407 10.2032 7.09042 10.7096C7.59677 11.2159 8.28352 11.5004 8.99961 11.5004Z" fill="#DC2626"/>
</svg>
