<svg xmlns="http://www.w3.org/2000/svg" width="105" height="32" fill="none"><g clip-path="url(#a)"><path fill="#a82324" d="m0 0 8.438-.003h2.665l1.575-.001 3.655-.001c.511-.002 1.024.007 1.528.096l.082.014c1.296.23 2.507.82 3.486 1.693l.04.035c.282.253.548.523.782.821l.03.038c.479.61.858 1.287 1.117 2.017l.018.05a6.7 6.7 0 0 1 .356 2.197v.054c-.002 1.7-.641 3.402-1.822 4.649q-.06.065-.11.135a.6.6 0 0 0 .137.186c.899.957 1.461 2.218 1.681 3.496l.01.06c.121.687.117 1.479-.01 2.166l-.013.073a6.6 6.6 0 0 1-.72 2.06 6.5 6.5 0 0 1-.955 1.356l-.03.032a5.5 5.5 0 0 1-.692.671q-.089.072-.175.146c-1.135.933-2.662 1.51-4.142 1.508h-4.519L8.6 23.545H0zm4.437 4.388V9.61l1.908.001h.049l1.624.001h.054l1.718.001h.057l3.96.003h.052l2.181.001h.525c.345.002.68-.014 1.008-.126l.048-.017q.466-.166.842-.485l.034-.028a2.6 2.6 0 0 0 .934-1.813 2.46 2.46 0 0 0-.614-1.822c-.504-.567-1.196-.88-1.952-.935-.197-.01-.395-.007-.592-.007h-2.948l-3.632.002H4.437m0 9.59v5.18l1.906.001h.049l1.623.002h1.827l3.957.004h.052l.837.001h.842l1.024.002c.81.004 1.487-.224 2.072-.792.342-.343.572-.762.681-1.23l.012-.05c.037-.174.04-.346.038-.522v-.046c-.003-.586-.176-1.12-.57-1.566l-.045-.053a2.76 2.76 0 0 0-1.277-.833l-.051-.015c-.323-.092-.645-.09-.977-.089h-1.838l-.835.001h-.316l-3.682.002H7.949l-1.612.001H6.29zm28.61-13.98.126-.001h.71l2.707-.001h.045l5.283-.001c1.238-.002 1.238-.002 1.789.096l.08.014a6.96 6.96 0 0 1 3.248 1.5l.065.053c.17.138.327.288.483.44l.06.06c.131.13.25.266.366.41l.04.05c.182.224.349.454.5.7l.03.045a7 7 0 0 1 .383.707c.456.925.627 1.929.627 2.95h-4.437l-.044-.449a2.6 2.6 0 0 0-.67-1.327l-.053-.057c-.48-.5-1.14-.76-1.832-.779q-.18-.002-.359-.002h-3.827l-3.722-.002h-1.487c-.343-.001-.701.003-1.031.104l-.057.017c-.352.109-.67.296-.939.546-.049.045-.049.045-.103.086-.098.08-.171.181-.249.28l-.045.055a2.4 2.4 0 0 0-.474 1.143l-.007.058c-.072.668.09 1.343.511 1.878.45.545 1.05.937 1.768 1.018.139.008.277.006.415.006h.842l1.577.002.435.001h.044l2.506.003h1.123l.478.002 1.935.001c1.894 0 3.667.366 5.148 1.612l.066.053q.245.204.47.43l.058.056q.19.192.358.403l.065.077c.851 1.018 1.358 2.278 1.515 3.583l.007.057c.155 1.515-.194 3.087-1.024 4.374l-.044.067a8 8 0 0 1-.562.746l-.057.068a6 6 0 0 1-.392.423l-.046.045q-.148.145-.306.277l-.038.033a7.13 7.13 0 0 1-3.772 1.616l-.044.005c-.209.023-.418.02-.628.02h-2.239l-1.918.001h-.048l-3.376.002h-.044l-1.82.001c-2.113.005-3.938-.644-5.45-2.127a4.5 4.5 0 0 1-.407-.45l-.068-.083c-1.004-1.233-1.512-2.772-1.512-4.347h4.438l.064.514c.119.512.348.926.715 1.305l.042.047c.389.413.99.694 1.56.726q.187.005.376.003h.127l.724.001 1.508.001h1.666a986 986 0 0 1 3.056.002l1.585.001h.835c.653.004 1.253-.177 1.746-.61l.05-.042c.13-.108.236-.23.34-.364l.04-.052c.42-.568.562-1.267.462-1.96-.093-.534-.346-.979-.72-1.37l-.04-.044c-.255-.27-.6-.463-.95-.584l-.043-.015c-.32-.102-.649-.116-.981-.115h-.852l-1.593-.002h-.485l-1.047-.001h-.417l-1.067-.001h-.046l-1.045-.001h-.484l-1.627-.002h-.371c-1.134 0-1.134 0-1.696-.095l-.082-.014c-1.555-.275-3.061-1.108-4.078-2.315l-.029-.034a8 8 0 0 1-.837-1.208l-.025-.043c-.883-1.51-1.023-3.43-.592-5.097.2-.734.525-1.448.964-2.073l.027-.04c.192-.274.397-.533.628-.776q.072-.076.142-.156.158-.18.341-.333l.117-.1A7 7 0 0 1 31.255.17L31.31.16c.216-.049.432-.083.652-.11l.063-.007c.34-.039.68-.045 1.022-.045"/><path fill="#3c3f49" d="M56.645 17.894h21.06v5.544h-21.06zm9.2-8.947h21.081v5.523H65.844zM73.744 0h21.06v5.522h-21.06zm28.333 0c.078.029.145.063.215.109l.061.04.065.042.136.089.067.043.243.157.043.028.481.304.473.302q.25.161.503.32.318.202.635.407c-.03.08-.068.148-.116.22l-.044.067-.024.035-.125.187-.026.04q-.129.194-.255.39-.207.32-.417.64-.245.371-.486.745l-.305.467-.28.43q-.21.325-.423.648-.244.371-.485.745l-.305.467-.28.43q-.21.325-.423.648-.244.372-.486.745-.152.235-.305.468l-.28.43q-.21.324-.423.647-.244.372-.485.746l-.305.467q-.141.214-.28.43l-.423.648q-.222.337-.44.675-.212.327-.426.652-.216.327-.43.657l-.068.105-.042.066-.038.058q-.065.105-.125.21l.314.148.106.05.052.024.052.024.155.072q.096.043.188.094c.219.114.382.108.622.07q.12-.017.24-.03l.046-.005.094-.01.243-.027.302-.034.341-.039c.276-.029.276-.029.51-.164a.78.78 0 0 1 .545-.172c.178.032.336.09.498.17l.065.031c.541.266 1.039.619 1.53.964l.037.026c.275.195.569.468.662.8a.47.47 0 0 1-.104.369c-.193.204-.435.356-.668.512l-.049.032-.091.06c-.084.053-.084.053-.127.14l-.004.089c-.012.135-.061.254-.111.379l-.017.042-.044.096c-.07.148-.063.248-.027.405l.015.073.047.213.049.226.099.45q.084.37.155.743c.034.18.094.287.232.407l.038.034q.116.103.233.202.106.095.209.19.206.195.42.379c.673.575.673.575.73.934a.34.34 0 0 1-.137.22c-.139.09-.275.097-.437.076a.8.8 0 0 1-.195-.086l-.049-.027a5.4 5.4 0 0 1-.731-.524l-.203-.16a5 5 0 0 1-.404-.343 5 5 0 0 0-.156-.14l-.041-.035-.08-.065a1.6 1.6 0 0 1-.434-.588l-.023-.048a5 5 0 0 1-.191-.5l-.016-.049a17 17 0 0 1-.282-.957l-.015-.053-.026-.1c-.015-.074-.015-.074-.054-.135l-.025.04q-.245.41-.501.814l-.214.34-.023.037-.112.18q-.09.148-.186.29l-.028.042-.071.101c-.047.093-.04.176-.013.275l.025.065.029.075.015.04q.041.105.081.212l.017.045q.092.245.18.49l.05.145.033.089.028.078c.069.204.06.401-.021.602a.36.36 0 0 1-.26.155.66.66 0 0 1-.448-.147c-.266-.248-.413-.633-.558-.958l-.022-.047c-.466-1.049-.466-1.049-.264-1.588.18-.454.423-.868.685-1.28l.03-.049q.093-.143.192-.281l.046-.066.091-.127c.076-.103.076-.103.092-.225a1 1 0 0 0-.06-.14 1.22 1.22 0 0 1-.034-.715.9.9 0 0 0-.027-.49 3 3 0 0 1-.099-.49l-.005-.045c-.012-.14-.01-.28-.009-.421H99.1c-1.55.013-1.55.013-2.169-.277l-.14-.064a10 10 0 0 1-.546-.27 3 3 0 0 0-.293-.138q-.39.592-.778 1.19l-.305.467q-.141.214-.28.43-.21.324-.423.647-.245.372-.485.746l-.306.467-.28.43q-.21.324-.422.648-.245.371-.486.745l-.305.467-.28.43q-.33.512-.671 1.017a5 5 0 0 1-.422-.253 49 49 0 0 0-.546-.349l-.482-.308-.487-.31q-.486-.306-.964-.62c.037-.105.094-.194.152-.287l.032-.052q.11-.174.225-.343.131-.195.258-.393.158-.245.318-.488.158-.24.314-.482.21-.324.423-.647.244-.372.485-.746.151-.234.306-.467l.28-.43q.21-.324.422-.648.245-.371.486-.745.151-.234.305-.467l.28-.43q.21-.326.423-.648.244-.371.485-.745.152-.234.306-.467l.28-.43q.21-.325.422-.648.244-.372.486-.745.151-.235.305-.468l.28-.43q.21-.324.423-.647.244-.372.485-.746.151-.234.306-.467l.28-.43q.21-.325.422-.648.244-.371.486-.745.151-.234.305-.467l.28-.43q.21-.325.423-.648.221-.337.44-.676.212-.326.426-.651.244-.371.485-.746l.305-.467q.142-.214.28-.43.21-.324.423-.647.244-.372.485-.745.159-.247.321-.49.102-.155.2-.312"/><path fill="#a82324" d="M96.407 15.005a2 2 0 0 1 .27.106l.082.038.043.02.132.061q.208.093.41.2a.66.66 0 0 0 .413.076l.054-.006.126-.015q.12-.015.242-.028a77 77 0 0 0 .933-.105l.093-.01c.276-.03.276-.03.51-.165a.78.78 0 0 1 .545-.172c.178.032.336.09.498.17l.065.031c.541.266 1.039.619 1.53.964l.037.026c.275.195.569.468.662.8a.47.47 0 0 1-.104.37c-.193.203-.435.355-.668.51l-.049.033-.091.06c-.084.053-.084.053-.127.14l-.004.089c-.012.135-.061.254-.111.379l-.017.042-.044.096c-.07.148-.063.248-.027.405l.015.073.047.213.049.226.099.45q.084.37.155.743c.034.18.094.287.232.407l.038.034q.116.103.233.202.106.095.209.19.206.195.42.379c.673.576.673.576.73.934a.34.34 0 0 1-.137.22c-.139.09-.275.097-.437.076a.8.8 0 0 1-.195-.086l-.049-.026a5.4 5.4 0 0 1-.731-.525l-.203-.16a5 5 0 0 1-.404-.343 5 5 0 0 0-.156-.14l-.041-.035-.08-.065a1.6 1.6 0 0 1-.434-.588l-.023-.048a5 5 0 0 1-.191-.5l-.016-.049a17 17 0 0 1-.282-.957l-.015-.053-.026-.1c-.015-.074-.015-.074-.054-.135l-.025.04q-.245.41-.501.814l-.214.34-.023.037-.112.18a8 8 0 0 1-.186.29l-.028.042-.071.101c-.047.093-.04.176-.013.275l.025.065.029.075.015.04q.041.105.081.212l.017.045q.092.245.18.491l.05.144.033.089.028.078c.069.204.061.401-.021.602a.36.36 0 0 1-.26.155.66.66 0 0 1-.448-.147c-.266-.248-.413-.633-.558-.958l-.022-.047c-.466-1.049-.466-1.049-.264-1.588.18-.454.423-.868.685-1.28l.03-.049q.093-.142.192-.281l.046-.066.091-.127c.076-.103.076-.103.092-.225a1 1 0 0 0-.06-.14 1.2 1.2 0 0 1-.034-.715.9.9 0 0 0-.027-.49 3 3 0 0 1-.099-.49l-.005-.045c-.012-.14-.01-.28-.009-.421H99.1c-1.55.013-1.55.013-2.169-.277l-.14-.064q-.43-.195-.839-.43c.03-.077.065-.145.11-.215l.04-.061.041-.063.04-.063q.107-.166.224-.325"/><path fill="#3c3f49" d="M50.725 28.358h.98l.975-.002h.305c.376.001.676.084.957.338.216.222.288.484.287.782-.007.272-.107.47-.268.683l.03.044c.19.285.275.557.22.9-.08.312-.253.542-.528.714a1.2 1.2 0 0 1-.588.128h-.302l-.231-.001-.436-.002-.498-.002q-.51 0-1.022-.004l-.001-1.389v-.645l-.001-.562v-.9c.004-.094.035-.082.121-.082m.574.688v.77l1.115.009a43 43 0 0 0 .654.004l.054.001a.47.47 0 0 0 .32-.12.47.47 0 0 0 .115-.334.38.38 0 0 0-.153-.252c-.128-.076-.24-.08-.385-.08h-.368l-.68.001zm0 1.456v.77a220 220 0 0 0 1.514.007h.174l.051.001a.63.63 0 0 0 .385-.107c.082-.105.135-.193.123-.33-.026-.148-.114-.235-.234-.32-.084-.028-.164-.024-.251-.024h-.377l-.345.001h-.351zm11.97-2.14h3.614v.684h-2.922v.77h2.922v.686h-2.922v.77h2.922v.664h-3.615zm37.965 0h.692l.195.235.13.139q.143.152.274.314.103.12.214.235.1.106.193.22.114.14.239.269.15.157.286.326.087.101.179.198.144.152.275.314.11.13.223.254l.022-2.505h.693v3.575h-.715c-.215-.236-.215-.236-.288-.328a5 5 0 0 0-.265-.296 5 5 0 0 1-.24-.28 5 5 0 0 0-.181-.199 5 5 0 0 1-.274-.314q-.088-.102-.18-.2a5 5 0 0 1-.274-.314 5 5 0 0 0-.213-.232c-.098-.103-.181-.209-.271-.32l-.022 2.483h-.692zm-75.93 0h3.614v.706c-.137.123-.27.24-.414.355q-.122.103-.24.213c-.09.084-.184.16-.281.238a5 5 0 0 0-.202.178 5 5 0 0 1-.317.271q-.123.103-.238.212-.108.1-.223.19a5 5 0 0 0-.312.274 10 10 0 0 1-.284.252l2.51.021v.664h-3.614v-.685l.238-.193q.072-.063.14-.128a5 5 0 0 1 .319-.271q.122-.103.237-.212.108-.1.223-.19.14-.113.272-.237a5 5 0 0 1 .33-.282 5 5 0 0 0 .2-.178 5 5 0 0 1 .317-.271q.131-.109.256-.221l-2.532-.022zm-21.82.47c.05.048.09.095.13.15-.254.324-.254.324-.389.47a.7.7 0 0 1-.192-.132c-.39-.318-.856-.39-1.345-.36a1.3 1.3 0 0 0-.757.407 1.27 1.27 0 0 0-.268.96c.053.305.24.581.49.763.332.227.674.306 1.072.258.242-.045.48-.133.632-.333a.7.7 0 0 0 .108-.32H1.926v-.643h1.689V32h-.628l-.022-.257-.055.03a2.08 2.08 0 0 1-1.546.163 2.1 2.1 0 0 1-.823-.492l-.04-.035c-.187-.169-.327-.418-.414-.65l-.026-.066a1.83 1.83 0 0 1 .108-1.357c.068-.13.145-.244.242-.354l.034-.043c.31-.378.816-.584 1.294-.636.635-.048 1.255.124 1.746.53m37.36-.171a1.9 1.9 0 0 1 .727 1.227 1.92 1.92 0 0 1-.38 1.427c-.285.356-.707.63-1.17.685-.538.043-1.01-.082-1.428-.428-.338-.29-.588-.733-.628-1.177-.035-.564.093-1.067.477-1.499l.042-.048c.627-.664 1.63-.694 2.36-.187m-1.926.749c-.21.282-.29.573-.26.92.057.313.215.574.467.772a1.2 1.2 0 0 0 .895.181c.312-.081.552-.276.716-.546.162-.292.186-.586.11-.908-.1-.322-.311-.56-.608-.719a1.12 1.12 0 0 0-1.32.3m52.45-.811c.417.298.722.728.809 1.235.063.523-.03 1.036-.357 1.46l-.11.128-.046.053c-.293.311-.73.51-1.157.533a1.9 1.9 0 0 1-1.41-.527c-.37-.389-.538-.886-.53-1.412.017-.521.262-.976.643-1.33a1.81 1.81 0 0 1 2.158-.14m-1.65.64-.044.033c-.23.182-.375.472-.41.759q-.038.517.298.918c.184.191.446.333.714.35.344.009.627-.074.886-.308.23-.246.346-.546.34-.88a1.2 1.2 0 0 0-.42-.85c-.405-.316-.953-.337-1.363-.022m-75.627-.878h.758q.282.532.558 1.067.129.247.26.495.115.216.226.433.059.115.12.228c.249.46.305.832.264 1.352h-.411l-.368-.728-2.078-.021-.043.128-.07.143-.02.04-.042.082-.064.126c-.104.205-.104.205-.129.23q-.044.003-.087.002h-.109l-.056-.001-.138-.001c-.095-.684.136-1.163.46-1.756q.09-.167.177-.336.144-.276.293-.55a75 75 0 0 0 .415-.776zm.368.792a37 37 0 0 0-.52 1.002l-.06.117-.027.055-.026.05-.022.045c-.019.037-.019.037-.016.08h1.364c-.157-.328-.157-.328-.318-.653l-.032-.061-.095-.19-.227-.445z"/><path fill="#a82324" d="M100.633 12.732c.318.268.483.602.536 1.01l-.022.107h-.26l-.005.103a1.06 1.06 0 0 1-.354.684c-.275.222-.594.293-.94.262a1.1 1.1 0 0 1-.713-.45c-.094-.156-.172-.317-.187-.5l-.005-.057-.003-.042-.046.001-.06.002-.06.001c-.05-.004-.05-.004-.094-.047-.048-.267.09-.575.238-.792.243-.31.534-.497.93-.552.386-.042.732.032 1.045.27"/><path fill="#3c3f49" d="M75.99 28.359h1.543l.65.001 1.34.001v.685h-1.45v2.89h-.692v-2.89h-1.472c0-.684 0-.684.08-.687"/></g><defs><clipPath id="a"><path fill="#fff" d="M0 0h105v32H0z"/></clipPath></defs></svg>