<svg width="21" height="20" viewBox="0 0 21 20" fill="none" xmlns="http://www.w3.org/2000/svg">
<path fill-rule="evenodd" clip-rule="evenodd" d="M3.31253 0C2.5666 0 1.85122 0.296319 1.32377 0.82377C0.796319 1.35122 0.5 2.0666 0.5 2.81253V5.93756C0.5 6.68349 0.796319 7.39886 1.32377 7.92631C1.85122 8.45377 2.5666 8.75008 3.31253 8.75008H6.43756C7.18349 8.75008 7.89886 8.45377 8.42631 7.92631C8.95377 7.39886 9.25008 6.68349 9.25008 5.93756V2.81253C9.25008 2.0666 8.95377 1.35122 8.42631 0.82377C7.89886 0.296319 7.18349 0 6.43756 0H3.31253ZM3.31253 11.2501C2.5666 11.2501 1.85122 11.5464 1.32377 12.0739C0.796319 12.6013 0.5 13.3167 0.5 14.0626V17.1877C0.5 17.9336 0.796319 18.649 1.32377 19.1764C1.85122 19.7039 2.5666 20.0002 3.31253 20.0002H6.43756C7.18349 20.0002 7.89886 19.7039 8.42631 19.1764C8.95377 18.649 9.25008 17.9336 9.25008 17.1877V14.0626C9.25008 13.3167 8.95377 12.6013 8.42631 12.0739C7.89886 11.5464 7.18349 11.2501 6.43756 11.2501H3.31253ZM14.5626 0C13.8167 0 13.1013 0.296319 12.5739 0.82377C12.0464 1.35122 11.7501 2.0666 11.7501 2.81253V5.93756C11.7501 6.68349 12.0464 7.39886 12.5739 7.92631C13.1013 8.45377 13.8167 8.75008 14.5626 8.75008H17.6877C18.4336 8.75008 19.149 8.45377 19.6764 7.92631C20.2039 7.39886 20.5002 6.68349 20.5002 5.93756V2.81253C20.5002 2.0666 20.2039 1.35122 19.6764 0.82377C19.149 0.296319 18.4336 0 17.6877 0H14.5626ZM14.5626 11.2501C13.8167 11.2501 13.1013 11.5464 12.5739 12.0739C12.0464 12.6013 11.7501 13.3167 11.7501 14.0626V17.1877C11.7501 17.9336 12.0464 18.649 12.5739 19.1764C13.1013 19.7039 13.8167 20.0002 14.5626 20.0002H17.6877C18.4336 20.0002 19.149 19.7039 19.6764 19.1764C20.2039 18.649 20.5002 17.9336 20.5002 17.1877V14.0626C20.5002 13.3167 20.2039 12.6013 19.6764 12.0739C19.149 11.5464 18.4336 11.2501 17.6877 11.2501H14.5626Z" fill="#C0BABA"/>
</svg>
