<svg width="40" height="40" viewBox="0 0 40 40" fill="none" xmlns="http://www.w3.org/2000/svg">
<path d="M0 20C0 8.95431 8.95431 0 20 0C31.0457 0 40 8.95431 40 20C40 31.0457 31.0457 40 20 40C8.95431 40 0 31.0457 0 20Z" fill="#F8FAFC"/>
<path fill-rule="evenodd" clip-rule="evenodd" d="M19.69 28.933L19.693 28.934C19.89 29.02 20 29 20 29C20 29 20.11 29.02 20.308 28.934L20.31 28.933L20.316 28.93L20.334 28.922C20.4289 28.8778 20.5226 28.8311 20.615 28.782C20.801 28.686 21.061 28.542 21.372 28.349C21.992 27.965 22.817 27.383 23.646 26.584C25.302 24.988 27 22.493 27 19C27 18.0807 26.8189 17.1705 26.4672 16.3212C26.1154 15.4719 25.5998 14.7003 24.9497 14.0503C24.2997 13.4002 23.5281 12.8846 22.6788 12.5328C21.8295 12.1811 20.9193 12 20 12C19.0807 12 18.1705 12.1811 17.3212 12.5328C16.4719 12.8846 15.7003 13.4002 15.0503 14.0503C14.4002 14.7003 13.8846 15.4719 13.5328 16.3212C13.1811 17.1705 13 18.0807 13 19C13 22.492 14.698 24.988 16.355 26.584C17.0486 27.2505 17.8105 27.8421 18.628 28.349C18.9447 28.5454 19.2704 28.7269 19.604 28.893L19.666 28.922L19.684 28.93L19.69 28.933ZM20 21.25C20.5967 21.25 21.169 21.0129 21.591 20.591C22.0129 20.169 22.25 19.5967 22.25 19C22.25 18.4033 22.0129 17.831 21.591 17.409C21.169 16.9871 20.5967 16.75 20 16.75C19.4033 16.75 18.831 16.9871 18.409 17.409C17.9871 17.831 17.75 18.4033 17.75 19C17.75 19.5967 17.9871 20.169 18.409 20.591C18.831 21.0129 19.4033 21.25 20 21.25Z" fill="#DC2626"/>
</svg>
