<svg width="20" height="20" viewBox="0 0 20 20" fill="none" xmlns="http://www.w3.org/2000/svg">
<path fill-rule="evenodd" clip-rule="evenodd" d="M3.24943 7C3.24943 5.20979 3.96059 3.4929 5.22646 2.22703C6.49233 0.961159 8.20922 0.25 9.99943 0.25C11.7896 0.25 13.5065 0.961159 14.7724 2.22703C16.0383 3.4929 16.7494 5.20979 16.7494 7V7.75C16.7494 9.873 17.5494 11.807 18.8674 13.27C18.9495 13.361 19.0081 13.4707 19.038 13.5896C19.0679 13.7084 19.0682 13.8328 19.0388 13.9518C19.0095 14.0708 18.9515 14.1808 18.8699 14.2722C18.7882 14.3636 18.6854 14.4335 18.5704 14.476C17.0264 15.046 15.4104 15.466 13.7394 15.719C13.7461 15.8123 13.7494 15.906 13.7494 16C13.7486 16.5037 13.6462 17.0021 13.4485 17.4654C13.2509 17.9287 12.9618 18.3474 12.5988 18.6965C12.2357 19.0457 11.806 19.3181 11.3354 19.4976C10.8647 19.677 10.3627 19.7598 9.85934 19.741C9.35598 19.7222 8.86158 19.6021 8.40562 19.3881C7.94967 19.174 7.54152 18.8702 7.20554 18.4949C6.86955 18.1196 6.61261 17.6805 6.45006 17.2038C6.28751 16.727 6.22268 16.2224 6.25943 15.72C4.6111 15.4701 2.99245 15.0533 1.42843 14.476C1.31338 14.4337 1.21047 14.3638 1.12871 14.2724C1.04694 14.1811 0.988806 14.0711 0.959399 13.9521C0.929991 13.8331 0.930205 13.7087 0.960021 13.5898C0.989837 13.4708 1.04835 13.3611 1.13043 13.27C2.49699 11.7565 3.25222 9.78914 3.24943 7.75V7ZM7.75143 15.9L7.74943 16C7.75013 16.2992 7.81052 16.5953 7.92705 16.8709C8.04359 17.1466 8.21393 17.3962 8.42811 17.6051C8.64229 17.8141 8.896 17.9783 9.17439 18.088C9.45278 18.1977 9.75027 18.2508 10.0494 18.2441C10.3486 18.2375 10.6434 18.1712 10.9167 18.0492C11.1899 17.9273 11.4361 17.752 11.6408 17.5337C11.8454 17.3154 12.0045 17.0585 12.1087 16.778C12.2129 16.4975 12.26 16.199 12.2474 15.9C10.7518 16.035 9.24705 16.035 7.75143 15.9Z" fill="#212222" fill-opacity="0.8"/>
</svg>
