<svg width="19" height="20" viewBox="0 0 19 20" fill="none" xmlns="http://www.w3.org/2000/svg">
<path fill-rule="evenodd" clip-rule="evenodd" d="M2.62503 1.17448e-06C2.12774 1.17448e-06 1.65082 0.197548 1.29918 0.549184C0.947547 0.90082 0.75 1.37774 0.75 1.87503V18.1253C0.75 18.6226 0.947547 19.0995 1.29918 19.4511C1.65082 19.8027 2.12774 20.0003 2.62503 20.0003H16.3752C16.8725 20.0003 17.3494 19.8027 17.7011 19.4511C18.0527 19.0995 18.2503 18.6226 18.2503 18.1253V7.02635C18.2498 6.52923 18.052 6.05263 17.7002 5.70133L12.5502 0.548759C12.3758 0.374524 12.1688 0.236374 11.941 0.142212C11.7133 0.0480505 11.4691 -0.000274695 11.2227 1.17448e-06H2.62503ZM5.43757 10.6252C5.18892 10.6252 4.95046 10.7239 4.77465 10.8997C4.59883 11.0756 4.50005 11.314 4.50005 11.5627C4.50005 11.8113 4.59883 12.0498 4.77465 12.2256C4.95046 12.4014 5.18892 12.5002 5.43757 12.5002H13.5627C13.8113 12.5002 14.0498 12.4014 14.2256 12.2256C14.4014 12.0498 14.5002 11.8113 14.5002 11.5627C14.5002 11.314 14.4014 11.0756 14.2256 10.8997C14.0498 10.7239 13.8113 10.6252 13.5627 10.6252H5.43757ZM5.43757 14.3752C5.18892 14.3752 4.95046 14.474 4.77465 14.6498C4.59883 14.8256 4.50005 15.0641 4.50005 15.3127C4.50005 15.5614 4.59883 15.7998 4.77465 15.9756C4.95046 16.1515 5.18892 16.2502 5.43757 16.2502H13.5627C13.8113 16.2502 14.0498 16.1515 14.2256 15.9756C14.4014 15.7998 14.5002 15.5614 14.5002 15.3127C14.5002 15.0641 14.4014 14.8256 14.2256 14.6498C14.0498 14.474 13.8113 14.3752 13.5627 14.3752H5.43757Z" fill="#C0BABA"/>
</svg>
