<svg width="40" height="40" viewBox="0 0 40 40" fill="none" xmlns="http://www.w3.org/2000/svg">
<path d="M0 20C0 8.95431 8.95431 0 20 0C31.0457 0 40 8.95431 40 20C40 31.0457 31.0457 40 20 40C8.95431 40 0 31.0457 0 20Z" fill="#F8FAFC"/>
<path d="M19.9991 18C20.7948 18 21.5578 17.6839 22.1204 17.1213C22.6831 16.5587 22.9991 15.7956 22.9991 15C22.9991 14.2044 22.6831 13.4413 22.1204 12.8787C21.5578 12.3161 20.7948 12 19.9991 12C19.2035 12 18.4404 12.3161 17.8778 12.8787C17.3152 13.4413 16.9991 14.2044 16.9991 15C16.9991 15.7956 17.3152 16.5587 17.8778 17.1213C18.4404 17.6839 19.2035 18 19.9991 18ZM13.4641 24.494C13.3718 24.7419 13.3618 25.0129 13.4356 25.2669C13.5095 25.5209 13.6633 25.7443 13.8741 25.904C15.6254 27.2652 17.781 28.0028 19.9991 28C22.3091 28 24.4371 27.216 26.1301 25.9C26.5601 25.567 26.7341 24.997 26.5381 24.49C26.0304 23.168 25.1337 22.0311 23.9664 21.2292C22.7992 20.4274 21.4162 19.9983 20.0001 19.9986C18.584 19.9989 17.2012 20.4287 16.0343 21.231C14.8674 22.0334 13.9713 23.1708 13.4641 24.493" fill="#DC2626"/>
</svg>
