<svg width="40" height="40" viewBox="0 0 40 40" fill="none" xmlns="http://www.w3.org/2000/svg">
<path d="M0 20C0 8.95431 8.95431 0 20 0C31.0457 0 40 8.95431 40 20C40 31.0457 31.0457 40 20 40C8.95431 40 0 31.0457 0 20Z" fill="#DC2626"/>
<path fill-rule="evenodd" clip-rule="evenodd" d="M12 13.5C12 13.1022 12.158 12.7206 12.4393 12.4393C12.7206 12.158 13.1022 12 13.5 12H14.648C14.9895 11.9999 15.3208 12.1162 15.5871 12.3299C15.8535 12.5435 16.039 12.8416 16.113 13.175L16.829 16.398C16.9118 16.7711 16.849 17.1618 16.6535 17.4901C16.458 17.8185 16.1445 18.0599 15.777 18.165L14.844 18.432C14.434 18.549 14.201 18.987 14.364 19.382C14.944 20.7845 15.7949 22.0588 16.8681 23.1319C17.9412 24.2051 19.2155 25.056 20.618 25.636C21.013 25.799 21.451 25.566 21.568 25.156L21.835 24.223C21.9401 23.8555 22.1815 23.5421 22.5099 23.3465C22.8382 23.151 23.2289 23.0882 23.602 23.171L26.825 23.887C27.1584 23.961 27.4565 24.1465 27.6701 24.4129C27.8838 24.6792 28.0001 25.0105 28 25.352V26.5C28 26.8978 27.842 27.2794 27.5607 27.5607C27.2794 27.842 26.8978 28 26.5 28H25C23.851 28 22.737 27.85 21.674 27.57C19.4551 26.9811 17.4313 25.8159 15.8079 24.1927C14.1845 22.5695 13.0192 20.5458 12.43 18.327C12.1436 17.2412 11.999 16.1229 12 15V13.5Z" fill="white"/>
</svg>
