<svg width="16" height="16" viewBox="0 0 16 16" fill="none" xmlns="http://www.w3.org/2000/svg">
<path fill-rule="evenodd" clip-rule="evenodd" d="M4.73555e-06 1.5C4.73555e-06 1.10218 0.15804 0.720645 0.439345 0.43934C0.720649 0.158035 1.10218 1.3304e-07 1.5 1.3304e-07H2.648C2.98947 -0.000143625 3.32077 0.116222 3.58714 0.329867C3.85351 0.543511 4.03902 0.841646 4.113 1.175L4.829 4.398C4.91176 4.77112 4.84898 5.16176 4.65346 5.49015C4.45795 5.81854 4.14446 6.05992 3.777 6.165L2.844 6.432C2.434 6.549 2.201 6.987 2.364 7.382C2.94399 8.78447 3.79492 10.0588 4.86808 11.1319C5.94123 12.2051 7.21553 13.056 8.618 13.636C9.01301 13.799 9.451 13.566 9.568 13.156L9.835 12.223C9.94008 11.8555 10.1815 11.5421 10.5099 11.3465C10.8382 11.151 11.2289 11.0882 11.602 11.171L14.825 11.887C15.1584 11.961 15.4565 12.1465 15.6701 12.4129C15.8838 12.6792 16.0001 13.0105 16 13.352V14.5C16 14.8978 15.842 15.2794 15.5607 15.5607C15.2794 15.842 14.8978 16 14.5 16H13C11.851 16 10.737 15.85 9.674 15.57C7.45509 14.9811 5.43134 13.8159 3.80793 12.1927C2.18451 10.5695 1.01916 8.54585 0.430005 6.327C0.143583 5.24123 -0.000953721 4.12292 4.73555e-06 3V1.5Z" fill="#DC2626"/>
</svg>
