<svg width="16" height="16" viewBox="0 0 16 16" fill="none" xmlns="http://www.w3.org/2000/svg">
<path d="M9.125 1.625C9.125 1.32663 9.00647 1.04048 8.79549 0.829505C8.58452 0.618526 8.29837 0.5 8 0.5C7.70163 0.5 7.41548 0.618526 7.2045 0.829505C6.99353 1.04048 6.875 1.32663 6.875 1.625V6.875H1.625C1.32663 6.875 1.04048 6.99353 0.829505 7.2045C0.618526 7.41548 0.5 7.70163 0.5 8C0.5 8.29837 0.618526 8.58452 0.829505 8.79549C1.04048 9.00647 1.32663 9.125 1.625 9.125H6.875V14.375C6.875 14.6734 6.99353 14.9595 7.2045 15.1705C7.41548 15.3815 7.70163 15.5 8 15.5C8.29837 15.5 8.58452 15.3815 8.79549 15.1705C9.00647 14.9595 9.125 14.6734 9.125 14.375V9.125H14.375C14.6734 9.125 14.9595 9.00647 15.1705 8.79549C15.3815 8.58452 15.5 8.29837 15.5 8C15.5 7.70163 15.3815 7.41548 15.1705 7.2045C14.9595 6.99353 14.6734 6.875 14.375 6.875H9.125V1.625Z" fill="#212222"/>
</svg>
