<svg width="22" height="22" viewBox="0 0 22 22" fill="none" xmlns="http://www.w3.org/2000/svg">
<path fill-rule="evenodd" clip-rule="evenodd" d="M18.6206 18.8249C19.6892 17.8211 20.5404 16.6088 21.1217 15.2628C21.703 13.9169 22.0019 12.4661 22 11C22 5.06269 17.1873 0.25 11.25 0.25C5.3127 0.25 0.500009 5.06269 0.500009 11C0.498117 12.4661 0.797049 13.9169 1.37831 15.2628C1.95958 16.6088 2.81081 17.8211 3.87937 18.8249C5.87187 20.7065 8.50949 21.7532 11.25 21.75C13.9905 21.7532 16.6281 20.7065 18.6206 18.8249ZM4.79449 17.4081C5.56879 16.4399 6.55115 15.6584 7.66868 15.1217C8.78622 14.585 10.0103 14.3068 11.25 14.3077C12.4897 14.3068 13.7138 14.585 14.8313 15.1217C15.9489 15.6584 16.9312 16.4399 17.7055 17.4081C16.8611 18.2613 15.8556 18.9383 14.7474 19.3998C13.6393 19.8612 12.4504 20.0979 11.25 20.0961C10.0496 20.0979 8.86075 19.8612 7.75256 19.3998C6.64436 18.9383 5.63888 18.2613 4.79449 17.4081ZM15.3846 7.6923C15.3846 8.78887 14.949 9.84052 14.1736 10.6159C13.3982 11.3913 12.3466 11.8269 11.25 11.8269C10.1534 11.8269 9.10178 11.3913 8.32639 10.6159C7.551 9.84052 7.11539 8.78887 7.11539 7.6923C7.11539 6.59573 7.551 5.54408 8.32639 4.76869C9.10178 3.9933 10.1534 3.55769 11.25 3.55769C12.3466 3.55769 13.3982 3.9933 14.1736 4.76869C14.949 5.54408 15.3846 6.59573 15.3846 7.6923Z" fill="#C0BABA"/>
</svg>
