<svg width="24" height="24" viewBox="0 0 24 24" fill="none" xmlns="http://www.w3.org/2000/svg">
<g clip-path="url(#clip0_871_38218)">
<path d="M12 24C18.6274 24 24 18.6274 24 12C24 5.37258 18.6274 0 12 0C5.37258 0 0 5.37258 0 12C0 18.6274 5.37258 24 12 24Z" fill="#F0F0F0"/>
<path d="M23.2536 16.172C23.736 14.872 24 13.466 24 11.9981C24 10.5303 23.736 9.1242 23.2536 7.82422H0.746391C0.264047 9.1242 0 10.5303 0 11.9981C0 13.466 0.264047 14.872 0.746391 16.172L12 17.2155L23.2536 16.172Z" fill="#0052B4"/>
<path d="M11.9997 24.0019C17.1593 24.0019 21.5578 20.7454 23.2533 16.1758H0.746094C2.44161 20.7454 6.84012 24.0019 11.9997 24.0019Z" fill="#D80027"/>
</g>
<defs>
<clipPath id="clip0_871_38218">
<rect width="24" height="24" fill="white"/>
</clipPath>
</defs>
</svg>
