<svg width="22" height="22" viewBox="0 0 22 22" fill="none" xmlns="http://www.w3.org/2000/svg">
<path fill-rule="evenodd" clip-rule="evenodd" d="M8.40755 1.16402C8.4619 0.892087 8.60876 0.647372 8.82315 0.471483C9.03754 0.295593 9.30623 0.199386 9.58354 0.199219H12.4155C12.6929 0.199386 12.9615 0.295593 13.1759 0.471483C13.3903 0.647372 13.5372 0.892087 13.5915 1.16402L13.9887 3.14642C14.8268 3.46597 15.6083 3.91769 16.3035 4.48442L18.2211 3.83642C18.4838 3.74764 18.7691 3.75257 19.0286 3.85035C19.288 3.94814 19.5056 4.13276 19.6443 4.37282L21.0603 6.82562C21.1991 7.06573 21.2505 7.3465 21.2056 7.62018C21.1608 7.89386 21.0225 8.14356 20.8143 8.32682L19.2939 9.66242C19.4367 10.5479 19.4367 11.4505 19.2939 12.336L20.8143 13.6716C21.0224 13.8547 21.1607 14.1041 21.2058 14.3775C21.2508 14.6509 21.1999 14.9315 21.0615 15.1716L19.6455 17.6256C19.5068 17.8659 19.289 18.0507 19.0293 18.1485C18.7696 18.2463 18.484 18.2511 18.2211 18.162L16.3035 17.514C15.6083 18.0807 14.8268 18.5325 13.9887 18.852L13.5927 20.8344C13.5384 21.1063 13.3915 21.3511 13.1771 21.527C12.9627 21.7028 12.6941 21.7991 12.4167 21.7992H9.58354C9.30623 21.7991 9.03754 21.7028 8.82315 21.527C8.60876 21.3511 8.4619 21.1063 8.40755 20.8344L8.01034 18.852C7.17226 18.5325 6.39076 18.0807 5.69554 17.514L3.77794 18.162C3.51527 18.2508 3.22996 18.2459 2.97051 18.1481C2.71106 18.0503 2.49348 17.8657 2.35474 17.6256L0.938745 15.1728C0.799961 14.9327 0.748629 14.6519 0.793477 14.3783C0.838325 14.1046 0.976585 13.8549 1.18474 13.6716L2.70514 12.3348C2.56254 11.4497 2.56254 10.5475 2.70514 9.66242L1.18474 8.32682C0.976681 8.14378 0.838377 7.89438 0.793317 7.62096C0.748256 7.34753 0.799216 7.06694 0.937545 6.82682L2.35354 4.37282C2.49232 4.13249 2.71011 3.9477 2.96982 3.8499C3.22953 3.75209 3.51512 3.74733 3.77794 3.83642L5.69554 4.48442C6.39113 3.91758 7.17304 3.46586 8.01155 3.14642L8.40755 1.16402ZM10.9995 14.5992C11.9543 14.5992 12.87 14.2199 13.5451 13.5448C14.2203 12.8697 14.5995 11.954 14.5995 10.9992C14.5995 10.0444 14.2203 9.12877 13.5451 8.45364C12.87 7.7785 11.9543 7.39922 10.9995 7.39922C10.0448 7.39922 9.12909 7.7785 8.45396 8.45364C7.77883 9.12877 7.39955 10.0444 7.39955 10.9992C7.39955 11.954 7.77883 12.8697 8.45396 13.5448C9.12909 14.2199 10.0448 14.5992 10.9995 14.5992Z" fill="white" fill-opacity="0.9"/>
</svg>
