<svg width="20" height="20" viewBox="0 0 20 20" fill="none" xmlns="http://www.w3.org/2000/svg">
<path d="M9.10131 13.9001C9.10131 14.1388 9.19613 14.3677 9.36492 14.5365C9.5337 14.7053 9.76262 14.8001 10.0013 14.8001C10.24 14.8001 10.4689 14.7053 10.6377 14.5365C10.8065 14.3677 10.9013 14.1388 10.9013 13.9001V3.5633L14.4473 7.3181C14.6126 7.48575 14.8369 7.58199 15.0723 7.58617C15.3077 7.59035 15.5353 7.50214 15.7064 7.34045C15.8775 7.17877 15.9785 6.95648 15.9876 6.72125C15.9967 6.48602 15.9134 6.25657 15.7553 6.0821L10.6553 0.682099C10.5712 0.593126 10.4698 0.522251 10.3574 0.473813C10.2449 0.425374 10.1238 0.400391 10.0013 0.400391C9.87887 0.400391 9.75772 0.425374 9.64527 0.473813C9.53281 0.522251 9.43143 0.593126 9.34731 0.682099L4.24731 6.0821C4.16322 6.16741 4.09701 6.26865 4.05256 6.37988C4.0081 6.49111 3.9863 6.6101 3.98842 6.72987C3.99055 6.84963 4.01656 6.96777 4.06494 7.07736C4.11331 7.18694 4.18308 7.28576 4.27014 7.36804C4.35721 7.45031 4.45982 7.51437 4.57196 7.55647C4.68411 7.59857 4.80353 7.61786 4.92322 7.61321C5.04292 7.60856 5.16048 7.58006 5.26902 7.52939C5.37756 7.47871 5.47489 7.40688 5.55531 7.3181L9.10131 3.5633V13.9001Z" fill="#212222"/>
<path d="M2.20234 13.3004C2.20234 13.0617 2.10752 12.8328 1.93874 12.664C1.76996 12.4952 1.54104 12.4004 1.30234 12.4004C1.06365 12.4004 0.83473 12.4952 0.665948 12.664C0.497165 12.8328 0.402344 13.0617 0.402344 13.3004V16.3004C0.402344 17.1756 0.750021 18.015 1.36889 18.6338C1.98776 19.2527 2.82713 19.6004 3.70234 19.6004H16.3023C17.1776 19.6004 18.0169 19.2527 18.6358 18.6338C19.2547 18.015 19.6023 17.1756 19.6023 16.3004V13.3004C19.6023 13.0617 19.5075 12.8328 19.3387 12.664C19.17 12.4952 18.941 12.4004 18.7023 12.4004C18.4636 12.4004 18.2347 12.4952 18.0659 12.664C17.8972 12.8328 17.8023 13.0617 17.8023 13.3004V16.3004C17.8023 17.1284 17.1303 17.8004 16.3023 17.8004H3.70234C2.87434 17.8004 2.20234 17.1284 2.20234 16.3004V13.3004Z" fill="#212222"/>
</svg>
