<svg width="24" height="24" viewBox="0 0 24 24" fill="none" xmlns="http://www.w3.org/2000/svg">
<g clip-path="url(#clip0_871_38204)">
<path d="M0.566625 8.34794C0.199031 9.49956 -4.68667e-05 10.7264 8.276e-09 12C-4.68667e-05 13.2736 0.199078 14.5005 0.566672 15.6521L12 16.174L23.4333 15.6522C23.8009 14.5006 24 13.2736 24 12.0001C24 10.7265 23.8009 9.49956 23.4333 8.34789L12 7.82617L0.566625 8.34794Z" fill="#F0F0F0"/>
<path d="M23.4332 8.34789L11.9999 7.82617L0.5665 8.34789C0.457562 8.68933 0.363766 9.03747 0.285156 9.39138H23.7144C23.6359 9.03742 23.5421 8.68923 23.4332 8.34789Z" fill="#D80027"/>
<path d="M0.285156 14.6094C0.363672 14.9633 0.457469 15.3114 0.566406 15.6528L0.567531 15.6529L11.9997 16.1746L23.433 15.6529C23.542 15.3114 23.6357 14.9633 23.7143 14.6094H0.285156Z" fill="#D80027"/>
<path d="M11.9997 24.0002C17.3536 24.0002 21.8878 20.4938 23.433 15.6523H0.566406C2.11164 20.4937 6.64595 24.0002 11.9997 24.0002V24.0002Z" fill="#6DA544"/>
<path d="M11.9997 4.69973e-10C6.64595 4.68755e-05 2.11173 3.50644 0.566406 8.34783L23.433 8.34787C21.8879 3.50639 17.3536 -4.68745e-05 11.9997 4.69973e-10V4.69973e-10Z" fill="#338AF3"/>
<path d="M5.48473 4.95716C5.48473 3.83323 6.27462 2.89433 7.32945 2.66398C7.16736 2.62855 6.99912 2.60938 6.82634 2.60938C5.52969 2.60938 4.47852 3.6605 4.47852 4.9572C4.47852 6.25391 5.52959 7.30503 6.82634 7.30503C6.99912 7.30503 7.16731 7.28581 7.32945 7.25042C6.27467 7.01998 5.48473 6.08108 5.48473 4.95716V4.95716Z" fill="#F0F0F0"/>
<path d="M8.71628 6.02344L8.87519 6.51258H9.3895L8.97344 6.81492L9.13234 7.30406L8.71628 7.00177L8.30012 7.30406L8.45908 6.81492L8.04297 6.51258H8.55728L8.71628 6.02344Z" fill="#F0F0F0"/>
<path d="M10.3588 6.02344L10.5177 6.51258H11.032L10.6159 6.81492L10.7749 7.30406L10.3588 7.00177L9.94266 7.30406L10.1016 6.81492L9.68555 6.51258H10.1998L10.3588 6.02344Z" fill="#F0F0F0"/>
<path d="M11.9995 6.02344L12.1584 6.51258H12.6727L12.2566 6.81492L12.4155 7.30406L11.9995 7.00177L11.5833 7.30406L11.7423 6.81492L11.3262 6.51258H11.8405L11.9995 6.02344Z" fill="#F0F0F0"/>
<path d="M13.6421 6.02344L13.801 6.51258H14.3153L13.8992 6.81492L14.0582 7.30406L13.6421 7.00177L13.2259 7.30406L13.3849 6.81492L12.9688 6.51258H13.4831L13.6421 6.02344Z" fill="#F0F0F0"/>
<path d="M15.2826 6.02344L15.4415 6.51258H15.9559L15.5398 6.81492L15.6987 7.30406L15.2826 7.00177L14.8665 7.30406L15.0254 6.81492L14.6094 6.51258H15.1236L15.2826 6.02344Z" fill="#F0F0F0"/>
<path d="M10.3588 4.31641L10.5177 4.8055H11.032L10.6159 5.10789L10.7749 5.59698L10.3588 5.29469L9.94266 5.59698L10.1016 5.10789L9.68555 4.8055H10.1998L10.3588 4.31641Z" fill="#F0F0F0"/>
<path d="M11.9995 4.31641L12.1584 4.8055H12.6727L12.2566 5.10789L12.4155 5.59698L11.9995 5.29469L11.5833 5.59698L11.7423 5.10789L11.3262 4.8055H11.8405L11.9995 4.31641Z" fill="#F0F0F0"/>
<path d="M13.6421 4.31641L13.801 4.8055H14.3153L13.8992 5.10789L14.0582 5.59698L13.6421 5.29469L13.2259 5.59698L13.3849 5.10789L12.9688 4.8055H13.4831L13.6421 4.31641Z" fill="#F0F0F0"/>
<path d="M15.2826 4.31641L15.4415 4.8055H15.9559L15.5398 5.10789L15.6987 5.59698L15.2826 5.29469L14.8665 5.59698L15.0254 5.10789L14.6094 4.8055H15.1236L15.2826 4.31641Z" fill="#F0F0F0"/>
<path d="M11.9995 2.60938L12.1584 3.09856H12.6727L12.2566 3.40086L12.4155 3.89005L11.9995 3.58775L11.5833 3.89005L11.7423 3.40086L11.3262 3.09856H11.8405L11.9995 2.60938Z" fill="#F0F0F0"/>
<path d="M13.6421 2.60938L13.801 3.09856H14.3153L13.8992 3.40086L14.0582 3.89005L13.6421 3.58775L13.2259 3.89005L13.3849 3.40086L12.9688 3.09856H13.4831L13.6421 2.60938Z" fill="#F0F0F0"/>
<path d="M15.2826 2.60938L15.4415 3.09856H15.9559L15.5398 3.40086L15.6987 3.89005L15.2826 3.58775L14.8665 3.89005L15.0254 3.40086L14.6094 3.09856H15.1236L15.2826 2.60938Z" fill="#F0F0F0"/>
</g>
<defs>
<clipPath id="clip0_871_38204">
<rect width="24" height="24" fill="white"/>
</clipPath>
</defs>
</svg>
