<svg width="22" height="22" viewBox="0 0 22 22" fill="none" xmlns="http://www.w3.org/2000/svg">
<path d="M11.0043 5.60977C8.02305 5.60977 5.61836 8.01445 5.61836 10.9957C5.61836 13.977 8.02305 16.3816 11.0043 16.3816C13.9855 16.3816 16.3902 13.977 16.3902 10.9957C16.3902 8.01445 13.9855 5.60977 11.0043 5.60977ZM11.0043 14.4973C9.07773 14.4973 7.50273 12.927 7.50273 10.9957C7.50273 9.06445 9.07305 7.49414 11.0043 7.49414C12.9355 7.49414 14.5059 9.06445 14.5059 10.9957C14.5059 12.927 12.9309 14.4973 11.0043 14.4973ZM17.8668 5.38945C17.8668 6.08789 17.3043 6.6457 16.6105 6.6457C15.9121 6.6457 15.3543 6.0832 15.3543 5.38945C15.3543 4.6957 15.9168 4.1332 16.6105 4.1332C17.3043 4.1332 17.8668 4.6957 17.8668 5.38945ZM21.434 6.66445C21.3543 4.98164 20.9699 3.49102 19.7371 2.26289C18.509 1.03477 17.0184 0.650391 15.3355 0.566016C13.6012 0.467578 8.40273 0.467578 6.66836 0.566016C4.99023 0.645703 3.49961 1.03008 2.2668 2.2582C1.03398 3.48633 0.654297 4.97695 0.569922 6.65977C0.471484 8.39414 0.471484 13.5926 0.569922 15.327C0.649609 17.0098 1.03398 18.5004 2.2668 19.7285C3.49961 20.9566 4.98555 21.341 6.66836 21.4254C8.40273 21.5238 13.6012 21.5238 15.3355 21.4254C17.0184 21.3457 18.509 20.9613 19.7371 19.7285C20.9652 18.5004 21.3496 17.0098 21.434 15.327C21.5324 13.5926 21.5324 8.39883 21.434 6.66445ZM19.1934 17.1879C18.8277 18.1066 18.1199 18.8145 17.1965 19.1848C15.8137 19.7332 12.5324 19.6066 11.0043 19.6066C9.47617 19.6066 6.19023 19.7285 4.81211 19.1848C3.89336 18.8191 3.18555 18.1113 2.81523 17.1879C2.2668 15.8051 2.39336 12.5238 2.39336 10.9957C2.39336 9.46758 2.27148 6.18164 2.81523 4.80352C3.18086 3.88477 3.88867 3.17695 4.81211 2.80664C6.19492 2.2582 9.47617 2.38477 11.0043 2.38477C12.5324 2.38477 15.8184 2.26289 17.1965 2.80664C18.1152 3.17227 18.823 3.88008 19.1934 4.80352C19.7418 6.18633 19.6152 9.46758 19.6152 10.9957C19.6152 12.5238 19.7418 15.8098 19.1934 17.1879Z" fill="#36414F"/>
</svg>
