<svg width="20" height="20" viewBox="0 0 20 20" fill="none" xmlns="http://www.w3.org/2000/svg">
<path d="M6.66862 13.333L13.9353 12.7271C16.2095 12.538 16.7195 12.0413 16.9711 9.7738L17.502 4.99963M5.00195 4.99963H18.3353" stroke="#36414F" stroke-width="1.5" stroke-linecap="round" stroke-linejoin="round"/>
<path d="M5.00065 18.333C5.92113 18.333 6.66732 17.5868 6.66732 16.6663C6.66732 15.7459 5.92113 14.9997 5.00065 14.9997C4.08018 14.9997 3.33398 15.7459 3.33398 16.6663C3.33398 17.5868 4.08018 18.333 5.00065 18.333Z" stroke="#36414F" stroke-width="1.5" stroke-linecap="round" stroke-linejoin="round"/>
<path d="M14.1686 18.333C15.0891 18.333 15.8353 17.5868 15.8353 16.6663C15.8353 15.7459 15.0891 14.9997 14.1686 14.9997C13.2481 14.9997 12.502 15.7459 12.502 16.6663C12.502 17.5868 13.2481 18.333 14.1686 18.333Z" stroke="#36414F" stroke-width="1.5" stroke-linecap="round" stroke-linejoin="round"/>
<path d="M6.66797 16.6663H12.5013M1.66797 1.66632H2.47297C3.26047 1.66632 3.9463 2.18715 4.13714 2.92882L6.61797 12.563C6.67952 12.8039 6.68524 13.0557 6.63469 13.2992C6.58414 13.5427 6.47867 13.7715 6.3263 13.968L5.52714 14.9997" stroke="#36414F" stroke-width="1.5" stroke-linecap="round" stroke-linejoin="round"/>
</svg>
