<svg width="18" height="20" viewBox="0 0 18 20" fill="none" xmlns="http://www.w3.org/2000/svg">
<path d="M4.48163 12.9017C3.30247 13.6034 0.210801 15.0367 2.09413 16.8309C3.0133 17.7067 4.03747 18.3334 5.32497 18.3334H12.6733C13.9616 18.3334 14.9858 17.7067 15.905 16.8309C17.7883 15.0367 14.6966 13.6034 13.5175 12.9017C12.149 12.0932 10.5886 11.6668 8.99913 11.6668C7.40967 11.6668 5.85014 12.0932 4.48163 12.9017ZM12.75 5.41669C12.75 6.41125 12.3549 7.36508 11.6516 8.06834C10.9484 8.7716 9.99453 9.16669 8.99997 9.16669C8.00541 9.16669 7.05158 8.7716 6.34832 8.06834C5.64506 7.36508 5.24997 6.41125 5.24997 5.41669C5.24997 4.42213 5.64506 3.4683 6.34832 2.76504C7.05158 2.06178 8.00541 1.66669 8.99997 1.66669C9.99453 1.66669 10.9484 2.06178 11.6516 2.76504C12.3549 3.4683 12.75 4.42213 12.75 5.41669Z" stroke="#36414F" stroke-width="1.5" stroke-linecap="round" stroke-linejoin="round"/>
</svg>
