<svg width="20" height="20" viewBox="0 0 20 20" fill="none" xmlns="http://www.w3.org/2000/svg">
<path d="M3.14749 9.95182C2.35749 8.57515 1.97582 7.45015 1.74582 6.31015C1.40582 4.62349 2.18415 2.97599 3.47332 1.92432C4.01832 1.48015 4.64332 1.63265 4.96582 2.21015L5.69332 3.51599C6.26999 4.55099 6.55832 5.06765 6.50165 5.61599C6.44415 6.16515 6.05499 6.61182 5.27749 7.50515L3.14749 9.95182ZM3.14749 9.95182C4.74665 12.7402 7.25582 15.2518 10.0475 16.8518M10.0475 16.8518C11.425 17.6418 12.5492 18.0235 13.6892 18.2535C15.3758 18.5935 17.0233 17.8152 18.0742 16.526C18.5192 15.981 18.3667 15.356 17.7892 15.0335L16.4833 14.306C15.4483 13.7293 14.9317 13.441 14.3833 13.4977C13.8342 13.5552 13.3875 13.9443 12.4942 14.7218L10.0475 16.8518Z" stroke="white" stroke-width="1.5" stroke-linecap="round" stroke-linejoin="round"/>
</svg>
