<svg width="24" height="16" viewBox="0 0 24 16" fill="none" xmlns="http://www.w3.org/2000/svg">
<path d="M22.9031 2.50346C22.6414 1.51804 21.8703 0.741958 20.8913 0.478583C19.1167 0 12.0008 0 12.0008 0C12.0008 0 4.88501 0 3.11038 0.478583C2.13134 0.742 1.36026 1.51804 1.09855 2.50346C0.623047 4.28958 0.623047 8.01617 0.623047 8.01617C0.623047 8.01617 0.623047 11.7428 1.09855 13.5289C1.36026 14.5143 2.13134 15.258 3.11038 15.5214C4.88501 16 12.0008 16 12.0008 16C12.0008 16 19.1167 16 20.8913 15.5214C21.8703 15.258 22.6414 14.5143 22.9031 13.5289C23.3786 11.7428 23.3786 8.01617 23.3786 8.01617C23.3786 8.01617 23.3786 4.28958 22.9031 2.50346ZM9.67355 11.3996V4.63271L15.621 8.01625L9.67355 11.3996Z" fill="#36414F"/>
</svg>
